<?xml version="1.0" encoding="UTF-8" standalone="no"?>
<svg
   xmlns:dc="http://purl.org/dc/elements/1.1/"
   xmlns:cc="http://creativecommons.org/ns#"
   xmlns:rdf="http://www.w3.org/1999/02/22-rdf-syntax-ns#"
   xmlns:svg="http://www.w3.org/2000/svg"
   xmlns="http://www.w3.org/2000/svg"
   xmlns:sodipodi="http://sodipodi.sourceforge.net/DTD/sodipodi-0.dtd"
   xmlns:inkscape="http://www.inkscape.org/namespaces/inkscape"
   viewBox="205 0 500 250"
   enable-background="new 205 0 500 250"
   id="svg5386"
   version="1.1"
   inkscape:version="0.91 r13725"
   sodipodi:docname="java_reverse.svg">
  <metadata
     id="metadata5422">
    <rdf:RDF>
      <cc:Work
         rdf:about="">
        <dc:format>image/svg+xml</dc:format>
        <dc:type
           rdf:resource="http://purl.org/dc/dcmitype/StillImage" />
      </cc:Work>
    </rdf:RDF>
  </metadata>
  <defs
     id="defs5420" />
  <sodipodi:namedview
     pagecolor="#ffffff"
     bordercolor="#666666"
     borderopacity="1"
     objecttolerance="10"
     gridtolerance="10"
     guidetolerance="10"
     inkscape:pageopacity="0"
     inkscape:pageshadow="2"
     inkscape:window-width="640"
     inkscape:window-height="480"
     id="namedview5418"
     showgrid="false"
     inkscape:zoom="0.87681241"
     inkscape:cx="206.67749"
     inkscape:cy="108.70191"
     inkscape:window-x="35"
     inkscape:window-y="110"
     inkscape:window-maximized="0"
     inkscape:current-layer="g5388" />
  <g
     id="g5388">
    <path
       fill="#5382A1"
       d="M271.1,185.2c0,0-8.5,5,6.1,6.7c17.7,2,26.7,1.7,46.3-2c0,0,5.1,3.2,12.3,6.1   C292,214.7,236.8,194.7,271.1,185.2"
       id="path5390" />
    <path
       fill="#5382A1"
       d="M265.8,160.7c0,0-9.5,7.1,5.1,8.7c18.9,2,33.9,2.1,59.7-2.8c0,0,3.6,3.6,9.2,5.6   C286.8,187.6,227.9,173.3,265.8,160.7"
       id="path5392" />
    <path
       fill="#F89820"
       d="M310.8,119.2c10.8,12.4-2.8,23.6-2.8,23.6s27.4-14.1,14.9-31.8c-11.8-16.5-20.8-24.8,28-53   C350.8,58,274.3,77.2,310.8,119.2"
       id="path5394" />
    <path
       fill="#5382A1"
       d="M368.8,203.3c0,0,6.3,5.2-6.9,9.3c-25.2,7.7-105.1,9.9-127.2,0.2c-7.9-3.5,6.9-8.3,11.6-9.3   c5-1.1,7.7-0.9,7.7-0.9c-8.9-6.2-57.3,12.3-24.6,17.6C318.5,234.7,391.9,213.7,368.8,203.3"
       id="path5396" />
    <path
       fill="#5382A1"
       d="M275.2,135.3c0,0-40.6,9.7-14.4,13.1c11,1.5,33.2,1.1,53.7-0.6c16.8-1.4,33.7-4.5,33.7-4.5   s-5.9,2.6-10.3,5.4c-41.2,10.9-120.9,5.8-98-5.3C259.5,134.3,275.2,135.3,275.2,135.3"
       id="path5398" />
    <path
       fill="#5382A1"
       d="M348.1,176.1c42-21.8,22.5-42.7,9-39.9c-3.3,0.7-4.8,1.2-4.8,1.2s1.2-2,3.6-2.7   c26.7-9.4,47.4,27.7-8.7,42.5C347.2,177.2,348,176.7,348.1,176.1"
       id="path5400" />
    <path
       fill="#F89820"
       d="M322.8,12.3c0,0,23.3,23.3-22,58.9c-36.3,28.6-8.3,44.9,0,63.6c-21.2-19.1-36.8-35.9-26.2-51.6   C289.8,60.5,332.3,49.3,322.8,12.3"
       id="path5402" />
    <path
       fill="#5382A1"
       d="M279.4,235.1c40.2,2.6,102-1.5,103.5-20.4c0,0-2.8,7.2-33.3,13c-34.4,6.4-76.7,5.7-101.9,1.6   C247.7,229.1,252.9,233.5,279.4,235.1"
       id="path5404" />
    <polygon
       fill="#5382A1"
       points="680,126.5 678,126.5 678,125.6 683.4,125.6 683.4,126.5 681.5,126.5 681.5,132 680.1,132    680.1,126.5 680,126.5  "
       id="polygon5406"
       style="fill:#ffffff" />
    <polygon
       points="687.8,132 685.8,126.8 685.8,132 684.5,132 684.5,125.3 686.5,125.3 688.2,130 689.9,125.3 691.9,125.3 691.9,132 690.5,132 690.7,126.8 690.7,126.8 688.7,132 "
       id="polygon5408"
       style="fill:#ffffff" />
    <path
       fill="#5382A1"
       d="M492.8,123.8c-12.1,0-22.8,3-31.3,6.8l2.5,10.4c6.8-2.5,15.6-4.7,24.1-4.7c12,0,17.1,4.7,17.1,14.9v7.4   h-5.9c-29.1,0-42.2,11.3-42.2,28.2c0,14.6,8.7,22.9,24.9,22.9c10.4,0,18.3-4.3,25.5-10.6l1.4,8.9h13.4v-59   C522.1,133.8,513.4,123.8,492.8,123.8z M505.1,188.8c-6.1,5.3-12.6,8.3-18.4,8.3c-8.3,0-12.7-5.1-12.7-12.9c0-8.7,4.7-15,24-15h7.2   V188.8z"
       id="path5410"
       style="fill:#ffffff" />
    <path
       fill="#5382A1"
       d="M578.7,208h-21l-25.4-82.7h18.4l15.7,50.7l3.6,15.3c8-22.2,13.6-44.6,16.5-66.1h17.9   C599.2,152.5,590.7,182.4,578.7,208"
       id="path5412"
       style="fill:#ffffff" />
    <path
       fill="#5382A1"
       d="M647.1,123.8c-12.1,0-22.8,3-31.3,6.8l2.5,10.4c6.8-2.5,15.6-4.7,24.1-4.7c12,0,17.1,4.7,17.1,14.9v7.4   h-5.9c-29.1,0-42.2,11.3-42.2,28.2c0,14.6,8.7,22.9,24.9,22.9c10.4,0,18.3-4.3,25.5-10.6l1.4,8.9h13.4v-59   C676.4,133.8,667.8,123.8,647.1,123.8z M659.5,188.8c-6.1,5.3-12.6,8.3-18.4,8.3c-8.3,0-12.7-5.1-12.7-12.9c0-8.7,4.7-15,24-15h7.2   V188.8z"
       id="path5414"
       style="fill:#ffffff" />
    <path
       fill="#5382A1"
       d="M438.4,222c-5,6.9-12.6,12.6-21,15.7l-8.3-9.8c6.6-3.2,12-8.8,14.7-13.6c2.2-4.5,3.1-10.3,3.1-23.9V96h17.9   V189C444.8,207.4,443.3,214.8,438.4,222"
       id="path5416"
       style="fill:#ffffff" />
  </g>
</svg>
